<?xml version="1.0" encoding="UTF-8"?>
<svg id="_レイヤー_1" data-name="レイヤー 1" xmlns="http://www.w3.org/2000/svg" viewBox="0 0 160 160">
  <defs>
    <style>
      .cls-1 {
        font-size: 28.56px;
      }

      .cls-1, .cls-2 {
        font-family: MinionVariableConcept-Roman, 'Minion Variable Concept';
        font-variation-settings: 'wght' 400, 'opsz' 11;
      }

      .cls-3 {
        stroke: #000;
        stroke-miterlimit: 10;
      }

      .cls-3, .cls-4 {
        fill: #fff;
      }

      .cls-2 {
        font-size: 24.48px;
      }
    </style>
  </defs>
  <g>
    <path class="cls-4" d="M102.79,97.93h24.5c4.04,0,7.31,3.28,7.31,7.31v40.7c0,4.04-3.28,7.31-7.31,7.31h-24.5c-4.04,0-7.31-3.28-7.31-7.31v-40.7c0-4.04,3.28-7.31,7.31-7.31Z"/>
    <path d="M127.3,98.43c3.76,0,6.81,3.06,6.81,6.81v40.7c0,3.76-3.06,6.81-6.81,6.81h-24.5c-3.76,0-6.81-3.06-6.81-6.81v-40.7c0-3.76,3.06-6.81,6.81-6.81h24.5M127.3,97.43h-24.5c-4.32,0-7.81,3.5-7.81,7.81v40.7c0,4.32,3.5,7.81,7.81,7.81h24.5c4.32,0,7.81-3.5,7.81-7.81v-40.7c0-4.32-3.5-7.81-7.81-7.81h0Z"/>
  </g>
  <path class="cls-3" d="M137.98,136.97c1.79-.92,11.43-6.1,12.84-15.32,2.27-14.85-18.47-29.32-26.65-25.9-3.42,1.43-5.81,6.47-4.64,9.98,2.26,6.78,16.87,4.98,17.97,10.63.63,3.23-3.08,9.21-7.25,11.95-.8.53-2.19,1.31-2.79,2.92-.75,2,.05,4.4,1.33,5.94.43.52,2.07,2.5,4.73,2.4,2.76-.11,4.3-2.36,4.46-2.6Z"/>
  <path class="cls-3" d="M97.9,70.92c-2,.27-12.81,1.93-17.22,10.16-7.1,13.25,7.63,33.8,16.47,33.31,3.7-.21,7.64-4.16,7.71-7.86.14-7.15-14.24-10.33-13.39-16.02.49-3.25,5.98-7.65,10.82-8.85.93-.23,2.5-.51,3.6-1.82,1.37-1.64,1.42-4.16.73-6.04-.23-.64-1.12-3.05-3.66-3.84-2.64-.82-4.84.79-5.07.96Z"/>
  <g>
    <path class="cls-4" d="M113.47,106.27c-9.92,0-17.99-8.49-17.99-18.92s8.07-18.92,17.99-18.92,17.99,8.49,17.99,18.92-8.07,18.92-17.99,18.92Z"/>
    <path d="M113.47,68.94c9.64,0,17.49,8.26,17.49,18.42s-7.84,18.42-17.49,18.42-17.49-8.26-17.49-18.42,7.84-18.42,17.49-18.42M113.47,67.94c-10.21,0-18.49,8.69-18.49,19.42s8.28,19.42,18.49,19.42,18.49-8.69,18.49-19.42-8.28-19.42-18.49-19.42h0Z"/>
  </g>
  <text class="cls-1" transform="translate(124.32 69.73) rotate(26.82)"><tspan x="0" y="0">?</tspan></text>
  <g>
    <path class="cls-4" d="M30.87,95.74h24.5c4.04,0,7.31,3.28,7.31,7.31v40.7c0,4.04-3.28,7.31-7.31,7.31h-24.5c-4.04,0-7.31-3.28-7.31-7.31v-40.7c0-4.04,3.28-7.31,7.31-7.31Z"/>
    <path d="M55.37,96.24c3.76,0,6.81,3.06,6.81,6.81v40.7c0,3.76-3.06,6.81-6.81,6.81h-24.5c-3.76,0-6.81-3.06-6.81-6.81v-40.7c0-3.76,3.06-6.81,6.81-6.81h24.5M55.37,95.24h-24.5c-4.32,0-7.81,3.5-7.81,7.81v40.7c0,4.32,3.5,7.81,7.81,7.81h24.5c4.32,0,7.81-3.5,7.81-7.81v-40.7c0-4.32-3.5-7.81-7.81-7.81h0Z"/>
  </g>
  <path class="cls-3" d="M39.58,120.87c-1.8.28-11.59,1.63-16.85-4.27-8.47-9.51,1.02-30.86,8.89-32.71,3.29-.77,7.42,1.6,8.1,4.74,1.32,6.08-10.79,12.48-9.08,17.13.97,2.65,6.54,5.01,11,4.79.86-.04,2.28-.21,3.48.64,1.48,1.05,1.95,3.2,1.66,4.98-.1.61-.47,2.89-2.57,4.22-2.18,1.38-4.39.56-4.62.47Z"/>
  <path class="cls-3" d="M49.74,129.32c1.69.18,10.9.99,16.17-4.88,8.48-9.44.53-29.27-6.83-30.64-3.08-.57-7.1,1.88-7.9,4.9-1.55,5.84,9.61,11.34,7.77,15.84-1.05,2.57-6.44,5.08-10.66,5.09-.81,0-2.15-.09-3.32.77-1.46,1.07-2,3.13-1.81,4.81.06.57.3,2.72,2.23,3.88,2,1.2,4.13.32,4.35.23Z"/>
  <g>
    <path class="cls-4" d="M43.12,102.03c-9.92,0-17.99-8.49-17.99-18.92s8.07-18.92,17.99-18.92,17.99,8.49,17.99,18.92-8.07,18.92-17.99,18.92Z"/>
    <path d="M43.12,64.7c9.64,0,17.49,8.26,17.49,18.42s-7.84,18.42-17.49,18.42-17.49-8.26-17.49-18.42,7.84-18.42,17.49-18.42M43.12,63.7c-10.21,0-18.49,8.69-18.49,19.42s8.28,19.42,18.49,19.42,18.49-8.69,18.49-19.42-8.28-19.42-18.49-19.42h0Z"/>
  </g>
  <text class="cls-2" transform="translate(16.4 73.48)"><tspan x="0" y="0">!</tspan></text>
</svg>